<svg width="29" height="17" viewBox="0 0 29 17" xmlns="http://www.w3.org/2000/svg"><path d="M2.418.305C1.485.305.73 1.053.73 1.989c0 .93.748 1.684 1.688 1.684h24.623c.933 0 1.689-.747 1.689-1.684 0-.93-.75-1.684-1.689-1.684H2.418zm0 6.316A1.68 1.68 0 00.73 8.305c0 .93.748 1.684 1.688 1.684h24.623c.933 0 1.689-.747 1.689-1.684 0-.93-.75-1.684-1.689-1.684H2.418zm0 6.316c-.933 0-1.688.747-1.688 1.684 0 .93.748 1.684 1.688 1.684h24.623c.933 0 1.689-.748 1.689-1.684 0-.93-.75-1.684-1.689-1.684H2.418z" fill="#FFF" fill-rule="evenodd"/></svg>